<?xml version="1.0" encoding="UTF-8"?>
<svg xmlns="http://www.w3.org/2000/svg" xmlns:xlink="http://www.w3.org/1999/xlink" width="352pt" height="195.495pt" viewBox="0 0 352 195.495" version="1.1">
<defs>
<clipPath id="clip1">
  <path d="M 114 29 L 238 29 L 238 132 L 114 132 Z M 114 29 "/>
</clipPath>
<clipPath id="clip2">
  <path d="M 173.804688 131.902344 L 115.277344 65.714844 L 144.601562 65.714844 Z M 178.367188 131.902344 L 236.898438 65.714844 L 207.574219 65.714844 Z M 237.152344 63.027344 L 218.035156 31.925781 L 207.398438 63.027344 Z M 176.308594 29.148438 L 216.253906 29.148438 L 205.617188 60.246094 Z M 175.867188 29.148438 L 146.554688 60.246094 L 135.917969 29.148438 Z M 114.847656 63.027344 L 144.601562 63.027344 L 133.964844 31.925781 Z M 114.847656 63.027344 "/>
</clipPath>
<linearGradient id="linear0" gradientUnits="userSpaceOnUse" x1="-0.000000515415" y1="0" x2="0.999997" y2="0" gradientTransform="matrix(-0.0000122,102.753311,-102.753311,-0.0000122,175.999893,29.148046)">
<stop offset="0" style="stop-color:rgb(66.494751%,48.486328%,11.572266%);stop-opacity:1;"/>
<stop offset="0.0078125" style="stop-color:rgb(66.583252%,48.620605%,11.634827%);stop-opacity:1;"/>
<stop offset="0.015625" style="stop-color:rgb(66.755676%,48.884583%,11.759949%);stop-opacity:1;"/>
<stop offset="0.0234375" style="stop-color:rgb(66.929626%,49.150085%,11.886597%);stop-opacity:1;"/>
<stop offset="0.03125" style="stop-color:rgb(67.105103%,49.415588%,12.014771%);stop-opacity:1;"/>
<stop offset="0.0390625" style="stop-color:rgb(67.279053%,49.684143%,12.142944%);stop-opacity:1;"/>
<stop offset="0.046875" style="stop-color:rgb(67.456055%,49.952698%,12.271118%);stop-opacity:1;"/>
<stop offset="0.0546875" style="stop-color:rgb(67.631531%,50.221252%,12.402344%);stop-opacity:1;"/>
<stop offset="0.0625" style="stop-color:rgb(67.807007%,50.491333%,12.533569%);stop-opacity:1;"/>
<stop offset="0.0703125" style="stop-color:rgb(67.985535%,50.762939%,12.664795%);stop-opacity:1;"/>
<stop offset="0.078125" style="stop-color:rgb(68.162537%,51.034546%,12.799072%);stop-opacity:1;"/>
<stop offset="0.0859375" style="stop-color:rgb(68.341064%,51.307678%,12.931824%);stop-opacity:1;"/>
<stop offset="0.09375" style="stop-color:rgb(68.519592%,51.580811%,13.067627%);stop-opacity:1;"/>
<stop offset="0.101562" style="stop-color:rgb(68.69812%,51.855469%,13.204956%);stop-opacity:1;"/>
<stop offset="0.109375" style="stop-color:rgb(68.878174%,52.131653%,13.340759%);stop-opacity:1;"/>
<stop offset="0.117187" style="stop-color:rgb(69.058228%,52.407837%,13.479614%);stop-opacity:1;"/>
<stop offset="0.125" style="stop-color:rgb(69.238281%,52.685547%,13.618469%);stop-opacity:1;"/>
<stop offset="0.132812" style="stop-color:rgb(69.418335%,52.963257%,13.75885%);stop-opacity:1;"/>
<stop offset="0.140625" style="stop-color:rgb(69.60144%,53.242493%,13.899231%);stop-opacity:1;"/>
<stop offset="0.148438" style="stop-color:rgb(69.781494%,53.523254%,14.042664%);stop-opacity:1;"/>
<stop offset="0.15625" style="stop-color:rgb(69.9646%,53.804016%,14.186096%);stop-opacity:1;"/>
<stop offset="0.164062" style="stop-color:rgb(70.147705%,54.086304%,14.329529%);stop-opacity:1;"/>
<stop offset="0.171875" style="stop-color:rgb(70.330811%,54.368591%,14.476013%);stop-opacity:1;"/>
<stop offset="0.179687" style="stop-color:rgb(70.515442%,54.652405%,14.622498%);stop-opacity:1;"/>
<stop offset="0.1875" style="stop-color:rgb(70.698547%,54.937744%,14.768982%);stop-opacity:1;"/>
<stop offset="0.195312" style="stop-color:rgb(70.884705%,55.224609%,14.916992%);stop-opacity:1;"/>
<stop offset="0.203125" style="stop-color:rgb(71.069336%,55.509949%,15.068054%);stop-opacity:1;"/>
<stop offset="0.210937" style="stop-color:rgb(71.255493%,55.79834%,15.219116%);stop-opacity:1;"/>
<stop offset="0.21875" style="stop-color:rgb(71.440125%,56.085205%,15.370178%);stop-opacity:1;"/>
<stop offset="0.226562" style="stop-color:rgb(71.627808%,56.375122%,15.522766%);stop-opacity:1;"/>
<stop offset="0.234375" style="stop-color:rgb(71.813965%,56.665039%,15.67688%);stop-opacity:1;"/>
<stop offset="0.242187" style="stop-color:rgb(72.003174%,56.956482%,15.830994%);stop-opacity:1;"/>
<stop offset="0.25" style="stop-color:rgb(72.192383%,57.249451%,15.988159%);stop-opacity:1;"/>
<stop offset="0.257812" style="stop-color:rgb(72.380066%,57.542419%,16.145325%);stop-opacity:1;"/>
<stop offset="0.265625" style="stop-color:rgb(72.569275%,57.836914%,16.30249%);stop-opacity:1;"/>
<stop offset="0.273438" style="stop-color:rgb(72.758484%,58.131409%,16.462708%);stop-opacity:1;"/>
<stop offset="0.28125" style="stop-color:rgb(72.949219%,58.427429%,16.622925%);stop-opacity:1;"/>
<stop offset="0.289062" style="stop-color:rgb(73.139954%,58.724976%,16.784668%);stop-opacity:1;"/>
<stop offset="0.296875" style="stop-color:rgb(73.330688%,59.022522%,16.947937%);stop-opacity:1;"/>
<stop offset="0.304688" style="stop-color:rgb(73.522949%,59.321594%,17.111206%);stop-opacity:1;"/>
<stop offset="0.3125" style="stop-color:rgb(73.71521%,59.622192%,17.276001%);stop-opacity:1;"/>
<stop offset="0.320312" style="stop-color:rgb(73.907471%,59.922791%,17.442322%);stop-opacity:1;"/>
<stop offset="0.328125" style="stop-color:rgb(74.101257%,60.224915%,17.610168%);stop-opacity:1;"/>
<stop offset="0.335937" style="stop-color:rgb(74.29657%,60.527039%,17.778015%);stop-opacity:1;"/>
<stop offset="0.34375" style="stop-color:rgb(74.488831%,60.830688%,17.947388%);stop-opacity:1;"/>
<stop offset="0.351562" style="stop-color:rgb(74.684143%,61.135864%,18.118286%);stop-opacity:1;"/>
<stop offset="0.359375" style="stop-color:rgb(74.879456%,61.442566%,18.289185%);stop-opacity:1;"/>
<stop offset="0.367187" style="stop-color:rgb(75.074768%,61.749268%,18.463135%);stop-opacity:1;"/>
<stop offset="0.375" style="stop-color:rgb(75.271606%,62.055969%,18.637085%);stop-opacity:1;"/>
<stop offset="0.382812" style="stop-color:rgb(75.468445%,62.365723%,18.812561%);stop-opacity:1;"/>
<stop offset="0.390625" style="stop-color:rgb(75.665283%,62.675476%,18.988037%);stop-opacity:1;"/>
<stop offset="0.398438" style="stop-color:rgb(75.863647%,62.986755%,19.166565%);stop-opacity:1;"/>
<stop offset="0.40625" style="stop-color:rgb(76.062012%,63.298035%,19.345093%);stop-opacity:1;"/>
<stop offset="0.414062" style="stop-color:rgb(76.25885%,63.61084%,19.523621%);stop-opacity:1;"/>
<stop offset="0.421875" style="stop-color:rgb(76.45874%,63.923645%,19.7052%);stop-opacity:1;"/>
<stop offset="0.429688" style="stop-color:rgb(76.65863%,64.239502%,19.888306%);stop-opacity:1;"/>
<stop offset="0.4375" style="stop-color:rgb(76.858521%,64.553833%,20.071411%);stop-opacity:1;"/>
<stop offset="0.445312" style="stop-color:rgb(77.059937%,64.871216%,20.256042%);stop-opacity:1;"/>
<stop offset="0.453125" style="stop-color:rgb(77.261353%,65.188599%,20.4422%);stop-opacity:1;"/>
<stop offset="0.460937" style="stop-color:rgb(77.462769%,65.507507%,20.628357%);stop-opacity:1;"/>
<stop offset="0.46875" style="stop-color:rgb(77.664185%,65.827942%,20.817566%);stop-opacity:1;"/>
<stop offset="0.476562" style="stop-color:rgb(77.867126%,66.148376%,21.006775%);stop-opacity:1;"/>
<stop offset="0.484375" style="stop-color:rgb(78.071594%,66.470337%,21.19751%);stop-opacity:1;"/>
<stop offset="0.492187" style="stop-color:rgb(78.274536%,66.792297%,21.389771%);stop-opacity:1;"/>
<stop offset="0.5" style="stop-color:rgb(78.479004%,67.115784%,21.582031%);stop-opacity:1;"/>
<stop offset="0.507812" style="stop-color:rgb(78.684998%,67.440796%,21.775818%);stop-opacity:1;"/>
<stop offset="0.515625" style="stop-color:rgb(78.889465%,67.767334%,21.972656%);stop-opacity:1;"/>
<stop offset="0.523437" style="stop-color:rgb(79.095459%,68.093872%,22.169495%);stop-opacity:1;"/>
<stop offset="0.53125" style="stop-color:rgb(79.301453%,68.421936%,22.367859%);stop-opacity:1;"/>
<stop offset="0.539062" style="stop-color:rgb(79.507446%,68.751526%,22.567749%);stop-opacity:1;"/>
<stop offset="0.546875" style="stop-color:rgb(79.716492%,69.081116%,22.767639%);stop-opacity:1;"/>
<stop offset="0.554687" style="stop-color:rgb(79.922485%,69.412231%,22.969055%);stop-opacity:1;"/>
<stop offset="0.5625" style="stop-color:rgb(80.131531%,69.743347%,23.171997%);stop-opacity:1;"/>
<stop offset="0.570312" style="stop-color:rgb(80.340576%,70.077515%,23.376465%);stop-opacity:1;"/>
<stop offset="0.578125" style="stop-color:rgb(80.549622%,70.410156%,23.582458%);stop-opacity:1;"/>
<stop offset="0.585937" style="stop-color:rgb(80.760193%,70.74585%,23.788452%);stop-opacity:1;"/>
<stop offset="0.59375" style="stop-color:rgb(80.970764%,71.083069%,23.997498%);stop-opacity:1;"/>
<stop offset="0.601562" style="stop-color:rgb(81.181335%,71.420288%,24.206543%);stop-opacity:1;"/>
<stop offset="0.609375" style="stop-color:rgb(81.391907%,71.757507%,24.417114%);stop-opacity:1;"/>
<stop offset="0.617187" style="stop-color:rgb(81.604004%,72.097778%,24.630737%);stop-opacity:1;"/>
<stop offset="0.625" style="stop-color:rgb(81.816101%,72.438049%,24.842834%);stop-opacity:1;"/>
<stop offset="0.632812" style="stop-color:rgb(82.029724%,72.779846%,25.057983%);stop-opacity:1;"/>
<stop offset="0.640625" style="stop-color:rgb(82.243347%,73.121643%,25.274658%);stop-opacity:1;"/>
<stop offset="0.648437" style="stop-color:rgb(82.45697%,73.464966%,25.491333%);stop-opacity:1;"/>
<stop offset="0.65625" style="stop-color:rgb(82.672119%,73.809814%,25.709534%);stop-opacity:1;"/>
<stop offset="0.664062" style="stop-color:rgb(82.885742%,74.156189%,25.930786%);stop-opacity:1;"/>
<stop offset="0.671875" style="stop-color:rgb(83.100891%,74.502563%,26.150513%);stop-opacity:1;"/>
<stop offset="0.679687" style="stop-color:rgb(83.317566%,74.850464%,26.373291%);stop-opacity:1;"/>
<stop offset="0.6875" style="stop-color:rgb(83.534241%,75.19989%,26.597595%);stop-opacity:1;"/>
<stop offset="0.695312" style="stop-color:rgb(83.750916%,75.549316%,26.823425%);stop-opacity:1;"/>
<stop offset="0.703125" style="stop-color:rgb(83.969116%,75.900269%,27.049255%);stop-opacity:1;"/>
<stop offset="0.710937" style="stop-color:rgb(84.187317%,76.252747%,27.278137%);stop-opacity:1;"/>
<stop offset="0.71875" style="stop-color:rgb(84.405518%,76.605225%,27.507019%);stop-opacity:1;"/>
<stop offset="0.726562" style="stop-color:rgb(84.625244%,76.960754%,27.737427%);stop-opacity:1;"/>
<stop offset="0.734375" style="stop-color:rgb(84.843445%,77.316284%,27.970886%);stop-opacity:1;"/>
<stop offset="0.742188" style="stop-color:rgb(85.064697%,77.671814%,28.20282%);stop-opacity:1;"/>
<stop offset="0.75" style="stop-color:rgb(85.284424%,78.030396%,28.437805%);stop-opacity:1;"/>
<stop offset="0.757812" style="stop-color:rgb(85.505676%,78.388977%,28.674316%);stop-opacity:1;"/>
<stop offset="0.765625" style="stop-color:rgb(85.728455%,78.749084%,28.912354%);stop-opacity:1;"/>
<stop offset="0.773438" style="stop-color:rgb(85.949707%,79.109192%,29.150391%);stop-opacity:1;"/>
<stop offset="0.78125" style="stop-color:rgb(86.172485%,79.470825%,29.389954%);stop-opacity:1;"/>
<stop offset="0.789063" style="stop-color:rgb(86.39679%,79.83551%,29.632568%);stop-opacity:1;"/>
<stop offset="0.796875" style="stop-color:rgb(86.619568%,80.200195%,29.876709%);stop-opacity:1;"/>
<stop offset="0.804688" style="stop-color:rgb(86.842346%,80.563354%,30.119324%);stop-opacity:1;"/>
<stop offset="0.8125" style="stop-color:rgb(87.068176%,80.931091%,30.366516%);stop-opacity:1;"/>
<stop offset="0.820313" style="stop-color:rgb(87.29248%,81.297302%,30.613708%);stop-opacity:1;"/>
<stop offset="0.828125" style="stop-color:rgb(87.519836%,81.666565%,30.862427%);stop-opacity:1;"/>
<stop offset="0.835938" style="stop-color:rgb(87.744141%,82.035828%,31.112671%);stop-opacity:1;"/>
<stop offset="0.84375" style="stop-color:rgb(87.971497%,82.406616%,31.364441%);stop-opacity:1;"/>
<stop offset="0.851563" style="stop-color:rgb(88.200378%,82.778931%,31.616211%);stop-opacity:1;"/>
<stop offset="0.859375" style="stop-color:rgb(88.426208%,83.152771%,31.872559%);stop-opacity:1;"/>
<stop offset="0.867188" style="stop-color:rgb(88.65509%,83.526611%,32.12738%);stop-opacity:1;"/>
<stop offset="0.875" style="stop-color:rgb(88.885498%,83.901978%,32.385254%);stop-opacity:1;"/>
<stop offset="0.882813" style="stop-color:rgb(89.11438%,84.27887%,32.644653%);stop-opacity:1;"/>
<stop offset="0.890625" style="stop-color:rgb(89.344788%,84.655762%,32.904053%);stop-opacity:1;"/>
<stop offset="0.898438" style="stop-color:rgb(89.575195%,85.035706%,33.166504%);stop-opacity:1;"/>
<stop offset="0.90625" style="stop-color:rgb(89.805603%,85.415649%,33.430481%);stop-opacity:1;"/>
<stop offset="0.914063" style="stop-color:rgb(90.037537%,85.795593%,33.694458%);stop-opacity:1;"/>
<stop offset="0.921875" style="stop-color:rgb(90.26947%,86.178589%,33.959961%);stop-opacity:1;"/>
<stop offset="0.929688" style="stop-color:rgb(90.501404%,86.561584%,34.230042%);stop-opacity:1;"/>
<stop offset="0.9375" style="stop-color:rgb(90.734863%,86.946106%,34.498596%);stop-opacity:1;"/>
<stop offset="0.945313" style="stop-color:rgb(90.968323%,87.332153%,34.768677%);stop-opacity:1;"/>
<stop offset="0.953125" style="stop-color:rgb(91.203308%,87.718201%,35.040283%);stop-opacity:1;"/>
<stop offset="0.960938" style="stop-color:rgb(91.438293%,88.1073%,35.314941%);stop-opacity:1;"/>
<stop offset="0.96875" style="stop-color:rgb(91.671753%,88.496399%,35.5896%);stop-opacity:1;"/>
<stop offset="0.976563" style="stop-color:rgb(91.908264%,88.885498%,35.865784%);stop-opacity:1;"/>
<stop offset="0.984375" style="stop-color:rgb(92.144775%,89.277649%,36.14502%);stop-opacity:1;"/>
<stop offset="0.992188" style="stop-color:rgb(92.381287%,89.671326%,36.424255%);stop-opacity:1;"/>
<stop offset="1" style="stop-color:rgb(92.617798%,90.063477%,36.705017%);stop-opacity:1;"/>
</linearGradient>
</defs>
<g id="surface1">
<path style=" stroke:none;fill-rule:nonzero;fill:rgb(0%,0%,0%);fill-opacity:1;" d="M 0 195.496094 L 352 195.496094 L 352 0 L 0 0 Z M 0 195.496094 "/>
<path style=" stroke:none;fill-rule:evenodd;fill:rgb(100%,100%,100%);fill-opacity:1;" d="M 193.722656 57.679688 L 158.269531 57.679688 L 153.101562 62.964844 L 147.1875 62.964844 L 175.9375 33.234375 L 176 33.296875 L 176.0625 33.234375 L 204.8125 62.964844 L 198.890625 62.964844 Z M 161.914062 53.957031 L 190.085938 53.957031 L 176.078125 39.636719 L 176 39.71875 L 175.921875 39.636719 Z M 204.304688 65.691406 L 176.757812 130.265625 L 182.683594 105.441406 L 196.210938 73.722656 L 176.058594 95.421875 L 176 95.355469 L 175.941406 95.421875 L 155.789062 73.722656 L 169.316406 105.441406 L 175.242188 130.261719 L 147.699219 65.691406 L 154.011719 65.691406 L 175.925781 89.019531 L 176 88.9375 L 176.078125 89.019531 L 197.984375 65.691406 Z M 204.304688 65.691406 "/>
<g clip-path="url(#clip1)" clip-rule="nonzero">
<g clip-path="url(#clip2)" clip-rule="evenodd">
<path style=" stroke:none;fill-rule:nonzero;fill:url(#linear0);" d="M 237.152344 29.148438 L 114.847656 29.148438 L 114.847656 131.902344 L 237.152344 131.902344 Z M 237.152344 29.148438 "/>
</g>
</g>
<path style=" stroke:none;fill-rule:evenodd;fill:rgb(100%,100%,100%);fill-opacity:1;" d="M 232.378906 166.347656 C 230.886719 166.347656 229.636719 166.125 228.625 165.675781 C 228.300781 165.539062 228.136719 165.25 228.136719 164.804688 C 228.136719 163.878906 228.179688 162.753906 228.265625 161.433594 C 228.300781 160.988281 228.402344 160.765625 228.574219 160.765625 C 228.746094 160.765625 228.832031 160.914062 228.832031 161.203125 C 228.832031 161.5625 228.910156 162 229.0625 162.515625 C 229.578125 164.246094 230.804688 165.113281 232.742188 165.113281 C 233.820312 165.113281 234.683594 164.796875 235.335938 164.160156 C 235.902344 163.59375 236.1875 162.933594 236.1875 162.179688 C 236.1875 160.757812 235.34375 159.386719 233.664062 158.066406 L 232.484375 157.140625 C 229.945312 155.152344 228.675781 153.121094 228.675781 151.046875 C 228.675781 149.625 229.226562 148.457031 230.324219 147.550781 C 231.421875 146.640625 232.851562 146.1875 234.617188 146.1875 C 235.730469 146.1875 236.871094 146.332031 238.039062 146.625 C 238.277344 146.691406 238.398438 146.796875 238.398438 146.933594 C 238.398438 146.898438 238.378906 147.203125 238.34375 147.84375 C 238.3125 148.488281 238.292969 149.210938 238.292969 150.019531 C 238.292969 150.53125 238.199219 150.789062 238.011719 150.789062 C 237.839844 150.789062 237.753906 150.636719 237.753906 150.328125 C 237.753906 149.761719 237.53125 149.195312 237.085938 148.628906 C 236.417969 147.789062 235.484375 147.371094 234.285156 147.371094 C 233.339844 147.371094 232.59375 147.613281 232.046875 148.101562 C 231.496094 148.589844 231.222656 149.230469 231.222656 150.019531 C 231.222656 150.617188 231.417969 151.1875 231.800781 151.726562 C 232.1875 152.269531 232.902344 152.933594 233.949219 153.722656 L 234.667969 154.261719 C 236.210938 155.425781 237.300781 156.503906 237.933594 157.488281 C 238.570312 158.472656 238.886719 159.582031 238.886719 160.816406 C 238.886719 162.753906 238.078125 164.246094 236.46875 165.292969 C 235.386719 165.996094 234.027344 166.347656 232.378906 166.347656 M 185.535156 163.414062 L 188.082031 146.648438 C 188.152344 146.203125 188.296875 145.980469 188.519531 145.980469 C 188.726562 145.980469 188.957031 146.246094 189.214844 146.777344 L 196.234375 161.28125 L 203.226562 146.597656 C 203.414062 146.1875 203.605469 145.980469 203.792969 145.980469 C 204.015625 145.980469 204.171875 146.246094 204.253906 146.777344 L 206.59375 162.667969 C 206.714844 163.527344 206.863281 164.144531 207.035156 164.519531 C 207.203125 164.898438 207.476562 165.148438 207.855469 165.265625 C 208.421875 165.4375 208.953125 165.523438 209.449219 165.523438 C 209.722656 165.523438 209.863281 165.582031 209.863281 165.703125 C 209.863281 165.890625 209.636719 165.988281 209.195312 165.988281 C 207.015625 165.988281 205.277344 165.933594 203.972656 165.832031 C 203.476562 165.796875 203.226562 165.703125 203.226562 165.550781 C 203.226562 165.429688 203.316406 165.335938 203.496094 165.265625 C 203.675781 165.199219 203.722656 164.828125 203.640625 164.160156 L 202.097656 152.847656 L 201.992188 152.847656 L 196.386719 164.542969 C 195.925781 165.507812 195.609375 165.988281 195.4375 165.988281 C 195.28125 165.988281 194.980469 165.558594 194.535156 164.695312 C 192.90625 161.589844 191.921875 159.640625 191.578125 158.851562 C 190.996094 157.578125 190.105469 155.671875 188.90625 153.128906 L 188.800781 153.128906 L 187.464844 163.363281 C 187.414062 163.757812 187.386719 164.160156 187.386719 164.574219 C 187.386719 165 187.644531 165.273438 188.160156 165.394531 C 188.535156 165.480469 188.898438 165.523438 189.238281 165.523438 C 189.496094 165.523438 189.625 165.582031 189.625 165.703125 C 189.625 165.890625 189.417969 165.988281 189.007812 165.988281 C 188.597656 165.988281 188.070312 165.972656 187.425781 165.949219 C 186.785156 165.921875 186.410156 165.910156 186.308594 165.910156 C 186.171875 165.910156 185.789062 165.921875 185.164062 165.949219 C 184.539062 165.972656 184.070312 165.988281 183.761719 165.988281 C 183.453125 165.988281 183.296875 165.890625 183.296875 165.703125 C 183.296875 165.582031 183.4375 165.523438 183.710938 165.523438 C 183.984375 165.523438 184.242188 165.5 184.480469 165.445312 C 184.996094 165.34375 185.347656 164.667969 185.535156 163.414062 M 154.789062 158.53125 L 154.789062 154.003906 C 154.789062 150.933594 154.773438 149.117188 154.738281 148.550781 C 154.6875 147.730469 154.316406 147.242188 153.632812 147.085938 C 153.390625 147.035156 153.058594 147.007812 152.628906 147.007812 C 152.335938 147.007812 152.191406 146.933594 152.191406 146.777344 C 152.191406 146.625 152.378906 146.546875 152.757812 146.546875 C 153.273438 146.546875 153.96875 146.558594 154.851562 146.585938 C 155.738281 146.609375 156.273438 146.625 156.460938 146.625 C 160.523438 146.625 162.667969 146.617188 162.890625 146.597656 C 163.335938 146.566406 163.703125 146.511719 163.996094 146.445312 C 164.285156 146.375 164.421875 146.339844 164.40625 146.339844 C 164.507812 146.339844 164.558594 146.417969 164.558594 146.574219 C 164.558594 146.589844 164.535156 146.746094 164.484375 147.035156 C 164.429688 147.378906 164.394531 147.78125 164.367188 148.246094 C 164.34375 148.707031 164.292969 149.273438 164.226562 149.941406 C 164.191406 150.128906 164.105469 150.222656 163.964844 150.222656 C 163.84375 150.222656 163.773438 150.128906 163.746094 149.941406 C 163.71875 149.753906 163.699219 149.574219 163.679688 149.402344 C 163.664062 149.230469 163.628906 149.074219 163.578125 148.9375 C 163.375 148.441406 162.796875 148.132812 161.851562 148.011719 C 161.265625 147.945312 160.042969 147.910156 158.183594 147.910156 C 158.0625 147.910156 158.003906 147.996094 158.003906 148.167969 L 158.003906 154.671875 C 158.003906 154.863281 158.0625 154.957031 158.183594 154.957031 C 160.542969 154.957031 161.921875 154.9375 162.316406 154.902344 C 162.605469 154.886719 162.832031 154.863281 162.988281 154.828125 C 163.246094 154.757812 163.433594 154.65625 163.554688 154.515625 C 163.761719 154.296875 163.902344 154.183594 163.96875 154.183594 C 164.089844 154.183594 164.148438 154.253906 164.148438 154.390625 C 164.148438 154.40625 164.125 154.578125 164.074219 154.902344 C 164.019531 155.296875 163.976562 155.753906 163.945312 156.265625 C 163.875 157.242188 163.839844 157.816406 163.839844 157.988281 C 163.839844 158.316406 163.761719 158.476562 163.605469 158.476562 C 163.449219 158.476562 163.375 158.386719 163.375 158.207031 C 163.375 158.027344 163.339844 157.734375 163.269531 157.320312 C 163.132812 156.738281 162.652344 156.402344 161.828125 156.320312 C 161.34375 156.265625 160.121094 156.242188 158.15625 156.242188 C 158.054688 156.242188 158.003906 156.328125 158.003906 156.496094 L 158.003906 162.515625 C 158.039062 163.421875 158.238281 164.011719 158.613281 164.277344 C 158.980469 164.542969 159.8125 164.675781 161.101562 164.675781 C 162.273438 164.675781 163.082031 164.574219 163.527344 164.367188 C 164.132812 164.09375 164.515625 163.457031 164.6875 162.464844 C 164.742188 162.207031 164.835938 162.078125 164.972656 162.078125 C 165.109375 162.078125 165.175781 162.234375 165.175781 162.539062 C 165.175781 163.585938 165.066406 164.539062 164.84375 165.394531 C 164.757812 165.703125 164.636719 165.890625 164.484375 165.960938 C 164.328125 166.03125 163.988281 166.0625 163.453125 166.0625 C 161.964844 166.0625 160.480469 166.039062 159.007812 165.988281 C 157.53125 165.933594 156.640625 165.910156 156.332031 165.910156 C 156.179688 165.910156 155.695312 165.921875 154.878906 165.949219 C 154.066406 165.972656 153.46875 165.988281 153.09375 165.988281 C 152.75 165.988281 152.578125 165.902344 152.578125 165.730469 C 152.578125 165.609375 152.765625 165.53125 153.144531 165.5 C 153.402344 165.464844 153.65625 165.4375 153.914062 165.421875 C 154.308594 165.335938 154.558594 164.863281 154.660156 164.007812 C 154.746094 163.339844 154.789062 161.511719 154.789062 158.53125 M 131.5 161.433594 L 131.5 164.261719 C 131.5 164.761719 131.386719 165.070312 131.164062 165.191406 C 129.710938 165.960938 127.648438 166.347656 124.976562 166.347656 C 121.570312 166.347656 118.804688 165.550781 116.683594 163.957031 C 114.304688 162.171875 113.113281 159.609375 113.113281 156.265625 C 113.113281 154.328125 113.570312 152.589844 114.476562 151.046875 C 115.265625 149.691406 116.300781 148.628906 117.585938 147.859375 C 119.441406 146.746094 121.746094 146.1875 124.503906 146.1875 C 126.132812 146.1875 127.652344 146.324219 129.054688 146.597656 C 129.863281 146.753906 130.539062 146.847656 131.085938 146.882812 C 131.328125 146.898438 131.449219 147 131.449219 147.191406 C 131.449219 147.035156 131.417969 147.371094 131.359375 148.191406 C 131.296875 149.015625 131.265625 150.085938 131.265625 151.40625 C 131.265625 151.765625 131.171875 151.945312 130.984375 151.945312 C 130.847656 151.945312 130.761719 151.835938 130.726562 151.613281 C 130.609375 150.6875 130.316406 149.976562 129.851562 149.476562 C 129.390625 148.980469 128.707031 148.542969 127.796875 148.167969 C 126.664062 147.703125 125.441406 147.472656 124.121094 147.472656 C 121.992188 147.472656 120.296875 148.003906 119.027344 149.0625 C 117.449219 150.382812 116.664062 152.476562 116.664062 155.351562 C 116.664062 158.160156 117.484375 160.476562 119.128906 162.289062 C 120.777344 164.101562 122.9375 165.007812 125.609375 165.007812 C 127.035156 165.007812 127.863281 164.828125 128.105469 164.46875 C 128.226562 164.316406 128.285156 164.089844 128.285156 163.78125 L 128.285156 161.371094 C 128.285156 159.902344 128.277344 158.890625 128.257812 158.34375 C 128.242188 157.523438 127.875 157.039062 127.152344 156.882812 C 126.914062 156.832031 126.578125 156.804688 126.152344 156.804688 C 125.894531 156.804688 125.765625 156.738281 125.765625 156.601562 C 125.765625 156.429688 125.945312 156.34375 126.304688 156.34375 C 126.800781 156.34375 127.496094 156.355469 128.386719 156.382812 C 129.28125 156.410156 129.828125 156.421875 130.035156 156.421875 C 130.289062 156.421875 130.785156 156.410156 131.511719 156.382812 C 132.242188 156.355469 132.75 156.34375 133.042969 156.34375 C 133.382812 156.34375 133.554688 156.429688 133.554688 156.601562 C 133.554688 156.738281 133.457031 156.804688 133.257812 156.804688 C 133.058594 156.804688 132.808594 156.832031 132.515625 156.882812 C 131.886719 157.003906 131.558594 157.492188 131.527344 158.347656 C 131.507812 158.898438 131.5 159.925781 131.5 161.433594 "/>
<path style=" stroke:none;fill-rule:evenodd;fill:rgb(75.135803%,11.477661%,14.047241%);fill-opacity:1;" d="M 165.929688 60.296875 L 165.804688 60.402344 L 190.148438 70.796875 L 190.828125 70.070312 L 189.628906 60.296875 Z M 165.929688 60.296875 "/>
<path style=" stroke:none;fill-rule:evenodd;fill:rgb(56.697083%,9.535217%,11.427307%);fill-opacity:1;" d="M 196.273438 63.925781 L 195.09375 65.527344 L 190.828125 70.070312 L 189.628906 60.296875 L 192.722656 60.296875 Z M 196.273438 63.925781 "/>
<path style=" stroke:none;fill-rule:evenodd;fill:rgb(80.731201%,11.81488%,14.581299%);fill-opacity:1;" d="M 196.273438 63.925781 L 195.09375 65.527344 L 196.4375 64.097656 Z M 196.273438 63.925781 "/>
<path style=" stroke:none;fill-rule:evenodd;fill:rgb(58.009338%,9.803772%,11.749268%);fill-opacity:1;" d="M 165.929688 60.296875 L 165.804688 60.402344 L 165.8125 60.296875 Z M 165.929688 60.296875 "/>
<path style=" stroke:none;fill-rule:evenodd;fill:rgb(80.731201%,11.81488%,14.581299%);fill-opacity:1;" d="M 158.699219 60.886719 L 165.804688 60.402344 L 165.8125 60.296875 L 159.277344 60.296875 Z M 158.699219 60.886719 "/>
<path style=" stroke:none;fill-rule:evenodd;fill:rgb(54.849243%,9.336853%,11.161804%);fill-opacity:1;" d="M 167.800781 77.125 L 165.804688 60.402344 L 190.148438 70.796875 L 183.289062 78.097656 L 175.421875 85.238281 Z M 167.800781 77.125 "/>
<path style=" stroke:none;fill-rule:evenodd;fill:rgb(75.135803%,11.477661%,14.047241%);fill-opacity:1;" d="M 183.289062 78.097656 L 175.421875 85.238281 L 175.902344 85.753906 L 176 85.644531 L 176.101562 85.753906 Z M 183.289062 78.097656 "/>
<path style=" stroke:none;fill-rule:evenodd;fill:rgb(90.06958%,11.387634%,14.448547%);fill-opacity:1;" d="M 167.800781 77.125 L 165.804688 60.402344 L 161.34375 70.253906 Z M 167.800781 77.125 "/>
<path style=" stroke:none;fill-rule:evenodd;fill:rgb(62.467957%,10.316467%,12.425232%);fill-opacity:1;" d="M 158.695312 60.894531 L 165.804688 60.402344 L 161.34375 70.253906 L 155.5625 64.097656 Z M 158.695312 60.894531 "/>
</g>
</svg>
